<svg width="171" height="41" viewBox="0 0 171 41" fill="none" xmlns="http://www.w3.org/2000/svg">
<path d="M58.0975 30V15.624H52.5055V13.08H66.7855V15.624H61.1935V30H58.0975ZM66.8338 30V20.976C66.8338 20.464 66.8178 19.944 66.7858 19.416C66.7698 18.888 66.7298 18.376 66.6658 17.88H69.5698L69.9058 21.192H69.4258C69.5858 20.392 69.8498 19.728 70.2178 19.2C70.6018 18.672 71.0658 18.28 71.6098 18.024C72.1538 17.768 72.7458 17.64 73.3858 17.64C73.6738 17.64 73.9058 17.656 74.0818 17.688C74.2578 17.704 74.4338 17.744 74.6098 17.808L74.5858 20.448C74.2818 20.32 74.0178 20.24 73.7938 20.208C73.5858 20.176 73.3218 20.16 73.0018 20.16C72.3138 20.16 71.7298 20.304 71.2498 20.592C70.7858 20.88 70.4338 21.28 70.1938 21.792C69.9698 22.304 69.8578 22.888 69.8578 23.544V30H66.8338ZM80.8425 30.24C79.7865 30.24 78.8585 29.992 78.0585 29.496C77.2585 28.984 76.6345 28.256 76.1865 27.312C75.7385 26.368 75.5145 25.24 75.5145 23.928C75.5145 22.616 75.7385 21.496 76.1865 20.568C76.6345 19.624 77.2585 18.904 78.0585 18.408C78.8585 17.896 79.7865 17.64 80.8425 17.64C81.8665 17.64 82.7625 17.896 83.5305 18.408C84.3145 18.904 84.8345 19.576 85.0905 20.424H84.8265L85.0905 17.88H87.9705C87.9225 18.376 87.8745 18.88 87.8265 19.392C87.7945 19.904 87.7785 20.408 87.7785 20.904V30H84.8025L84.7785 27.504H85.0665C84.8105 28.336 84.2905 29 83.5065 29.496C82.7225 29.992 81.8345 30.24 80.8425 30.24ZM81.6825 27.936C82.6265 27.936 83.3865 27.608 83.9625 26.952C84.5385 26.28 84.8265 25.272 84.8265 23.928C84.8265 22.584 84.5385 21.584 83.9625 20.928C83.3865 20.272 82.6265 19.944 81.6825 19.944C80.7385 19.944 79.9785 20.272 79.4025 20.928C78.8265 21.584 78.5385 22.584 78.5385 23.928C78.5385 25.272 78.8185 26.28 79.3785 26.952C79.9545 27.608 80.7225 27.936 81.6825 27.936ZM91.8613 30V20.136H89.5333V17.88H92.7013L91.8613 18.648V16.8C91.8613 15.296 92.2453 14.16 93.0133 13.392C93.7973 12.624 94.9413 12.24 96.4453 12.24C96.7973 12.24 97.1653 12.264 97.5493 12.312C97.9493 12.36 98.2933 12.448 98.5813 12.576V14.928C98.3733 14.848 98.1253 14.784 97.8373 14.736C97.5493 14.688 97.2693 14.664 96.9973 14.664C96.5813 14.664 96.2053 14.744 95.8693 14.904C95.5493 15.064 95.2933 15.312 95.1013 15.648C94.9253 15.968 94.8373 16.4 94.8373 16.944V18.408L94.4053 17.88H98.0293V20.136H94.8613V30H91.8613ZM104.444 30.24C103.388 30.24 102.46 29.992 101.66 29.496C100.86 28.984 100.236 28.256 99.7881 27.312C99.3401 26.368 99.1161 25.24 99.1161 23.928C99.1161 22.616 99.3401 21.496 99.7881 20.568C100.236 19.624 100.86 18.904 101.66 18.408C102.46 17.896 103.388 17.64 104.444 17.64C105.468 17.64 106.364 17.896 107.132 18.408C107.916 18.904 108.436 19.576 108.692 20.424H108.428L108.692 17.88H111.572C111.524 18.376 111.476 18.88 111.428 19.392C111.396 19.904 111.38 20.408 111.38 20.904V30H108.404L108.38 27.504H108.668C108.412 28.336 107.892 29 107.108 29.496C106.324 29.992 105.436 30.24 104.444 30.24ZM105.284 27.936C106.228 27.936 106.988 27.608 107.564 26.952C108.14 26.28 108.428 25.272 108.428 23.928C108.428 22.584 108.14 21.584 107.564 20.928C106.988 20.272 106.228 19.944 105.284 19.944C104.34 19.944 103.58 20.272 103.004 20.928C102.428 21.584 102.14 22.584 102.14 23.928C102.14 25.272 102.42 26.28 102.98 26.952C103.556 27.608 104.324 27.936 105.284 27.936ZM114.647 30V12.336H117.647V30H114.647ZM126.521 35.376C125.401 35.376 124.385 35.256 123.473 35.016C122.577 34.776 121.777 34.408 121.073 33.912L121.721 31.752C122.185 32.056 122.665 32.304 123.161 32.496C123.657 32.688 124.169 32.832 124.697 32.928C125.225 33.024 125.761 33.072 126.305 33.072C127.425 33.072 128.257 32.792 128.801 32.232C129.361 31.688 129.641 30.904 129.641 29.88V26.976H129.881C129.625 27.808 129.105 28.472 128.321 28.968C127.553 29.464 126.665 29.712 125.657 29.712C124.569 29.712 123.617 29.472 122.801 28.992C122.001 28.496 121.377 27.792 120.929 26.88C120.481 25.968 120.257 24.896 120.257 23.664C120.257 22.432 120.481 21.368 120.929 20.472C121.377 19.56 122.001 18.864 122.801 18.384C123.617 17.888 124.569 17.64 125.657 17.64C126.681 17.64 127.569 17.888 128.321 18.384C129.089 18.864 129.601 19.52 129.857 20.352L129.641 20.208L129.881 17.88H132.785C132.721 18.376 132.673 18.88 132.641 19.392C132.609 19.904 132.593 20.408 132.593 20.904V29.52C132.593 31.424 132.073 32.872 131.033 33.864C130.009 34.872 128.505 35.376 126.521 35.376ZM126.473 27.408C127.433 27.408 128.193 27.088 128.753 26.448C129.329 25.792 129.617 24.864 129.617 23.664C129.617 22.464 129.329 21.544 128.753 20.904C128.193 20.264 127.433 19.944 126.473 19.944C125.497 19.944 124.721 20.264 124.145 20.904C123.569 21.544 123.281 22.464 123.281 23.664C123.281 24.864 123.569 25.792 124.145 26.448C124.721 27.088 125.497 27.408 126.473 27.408ZM140.514 30.24C139.458 30.24 138.53 29.992 137.73 29.496C136.93 28.984 136.306 28.256 135.858 27.312C135.41 26.368 135.186 25.24 135.186 23.928C135.186 22.616 135.41 21.496 135.858 20.568C136.306 19.624 136.93 18.904 137.73 18.408C138.53 17.896 139.458 17.64 140.514 17.64C141.538 17.64 142.434 17.896 143.202 18.408C143.986 18.904 144.506 19.576 144.762 20.424H144.498L144.762 17.88H147.642C147.594 18.376 147.546 18.88 147.498 19.392C147.466 19.904 147.45 20.408 147.45 20.904V30H144.474L144.45 27.504H144.738C144.482 28.336 143.962 29 143.178 29.496C142.394 29.992 141.506 30.24 140.514 30.24ZM141.354 27.936C142.298 27.936 143.058 27.608 143.634 26.952C144.21 26.28 144.498 25.272 144.498 23.928C144.498 22.584 144.21 21.584 143.634 20.928C143.058 20.272 142.298 19.944 141.354 19.944C140.41 19.944 139.65 20.272 139.074 20.928C138.498 21.584 138.21 22.584 138.21 23.928C138.21 25.272 138.49 26.28 139.05 26.952C139.626 27.608 140.394 27.936 141.354 27.936ZM150.693 30V20.976C150.693 20.464 150.677 19.944 150.645 19.416C150.629 18.888 150.589 18.376 150.525 17.88H153.429L153.765 21.192H153.285C153.445 20.392 153.709 19.728 154.077 19.2C154.461 18.672 154.925 18.28 155.469 18.024C156.013 17.768 156.605 17.64 157.245 17.64C157.533 17.64 157.765 17.656 157.941 17.688C158.117 17.704 158.293 17.744 158.469 17.808L158.445 20.448C158.141 20.32 157.877 20.24 157.653 20.208C157.445 20.176 157.181 20.16 156.861 20.16C156.173 20.16 155.589 20.304 155.109 20.592C154.645 20.88 154.293 21.28 154.053 21.792C153.829 22.304 153.717 22.888 153.717 23.544V30H150.693Z" fill="white"/>
<ellipse cx="20.2594" cy="20.5" rx="20.2594" ry="20.5" fill="white"/>
<path d="M19.1914 31V15.426H13.1334V12.67H28.6034V15.426H22.5454V31H19.1914Z" fill="#5B9BF3"/>
</svg>
